<svg width="228" height="81" viewBox="0 0 228 81" fill="none" xmlns="http://www.w3.org/2000/svg">
<g clip-path="url(#clip0_1_5)">
<path d="M68.625 0.487793L78.9375 8.92529V27H76.875V9.63721L70.6875 4.57471V10.125H72.75V27H66.5625V21.9375H64.5V27H58.3125V10.125H64.5V8.4375H52.125V27H50.0625V6.75H66.5625V10.125H68.625V0.487793ZM70.6875 25.3125V11.8125H60.375V25.3125H62.4375V20.25H68.625V25.3125H70.6875ZM54.1875 11.8125V10.125H56.25V11.8125H54.1875ZM54.1875 15.1875V13.5H56.25V15.1875H54.1875ZM54.1875 18.5625V16.875H56.25V18.5625H54.1875ZM54.1875 21.9375V20.25H56.25V21.9375H54.1875ZM54.1875 25.3125V23.625H56.25V25.3125H54.1875ZM68.625 13.5V15.1875H66.5625V13.5H68.625ZM68.625 16.875V18.5625H66.5625V16.875H68.625ZM64.5 13.5V15.1875H62.4375V13.5H64.5ZM64.5 16.875V18.5625H62.4375V16.875H64.5Z" fill="url(#paint0_linear_1_5)"/>
</g>
<path d="M54.904 24.8435L5.10927 47H1L54.904 19L121.861 44.0783H209.606L220 47H121.861L54.904 24.8435Z" fill="url(#paint1_linear_1_5)"/>
<rect x="49.0127" y="33.936" width="6.77419" height="6.14595" fill="url(#paint2_linear_1_5)"/>
<rect x="59.3994" y="33.936" width="6.77419" height="6.14595" fill="url(#paint3_linear_1_5)"/>
<rect x="49.0127" y="42.9502" width="6.77419" height="6.14595" fill="url(#paint4_linear_1_5)"/>
<rect x="59.4004" y="42.9502" width="6.77419" height="6.14595" fill="url(#paint5_linear_1_5)"/>
<path d="M124.86 22.9652L101.895 38H100L124.86 19L155.74 36.0174H196.206L201 38H155.74L124.86 22.9652Z" fill="url(#paint6_linear_1_5)"/>
<path d="M125.496 25.3031L125.496 23.5254L143.638 31.1547V32.0436L125.496 25.3031Z" fill="#357AFF" fill-opacity="0.2"/>
<rect x="121.084" y="28.583" width="3.87097" height="3.97298" fill="url(#paint7_linear_1_5)"/>
<rect x="127.019" y="28.583" width="3.87097" height="3.97298" fill="url(#paint8_linear_1_5)"/>
<rect x="121.084" y="34.4102" width="3.87097" height="3.97298" fill="url(#paint9_linear_1_5)"/>
<rect x="127.02" y="34.4102" width="3.87097" height="3.97298" fill="url(#paint10_linear_1_5)"/>
<rect x="83.9023" y="22.3203" width="3.87097" height="2.15832" fill="url(#paint11_linear_1_5)"/>
<rect x="89.8381" y="22.3203" width="3.87097" height="2.15832" fill="url(#paint12_linear_1_5)"/>
<rect x="83.9023" y="25.4858" width="3.87097" height="2.15832" fill="url(#paint13_linear_1_5)"/>
<rect x="89.8379" y="25.4858" width="3.87097" height="2.15832" fill="url(#paint14_linear_1_5)"/>
<path d="M100.084 38.2921V20.344L88.5613 15.1333L79 20.344V31.1129L100.084 38.2921Z" stroke="url(#paint15_linear_1_5)" stroke-width="4"/>
<path d="M116.755 27.2716V20.457H101.064V37.4934L116.755 27.2716Z" fill="url(#paint16_angular_1_5)"/>
<path d="M100.819 19.457L88.5605 14H106.212L119.206 19.457H100.819Z" fill="url(#paint17_linear_1_5)" stroke="url(#paint18_linear_1_5)"/>
<path d="M4.96 58.856C4.96 59.824 5.208 60.564 5.704 61.076C6.208 61.58 6.92 61.832 7.84 61.832C8.32 61.832 8.748 61.756 9.124 61.604C9.5 61.452 9.816 61.244 10.072 60.98C10.328 60.716 10.52 60.404 10.648 60.044C10.784 59.684 10.852 59.296 10.852 58.88C10.852 58.408 10.78 57.988 10.636 57.62C10.492 57.244 10.288 56.928 10.024 56.672C9.76 56.416 9.444 56.22 9.076 56.084C8.716 55.948 8.32 55.88 7.888 55.88C7.44 55.88 7.036 55.956 6.676 56.108C6.316 56.252 6.008 56.456 5.752 56.72C5.496 56.984 5.3 57.3 5.164 57.668C5.028 58.028 4.96 58.424 4.96 58.856ZM8.896 64.268C9.032 64.1 9.16 63.936 9.28 63.776C9.4 63.616 9.516 63.456 9.628 63.296C9.228 63.552 8.788 63.748 8.308 63.884C7.828 64.012 7.324 64.076 6.796 64.076C6.196 64.076 5.608 63.972 5.032 63.764C4.456 63.556 3.944 63.244 3.496 62.828C3.048 62.404 2.684 61.884 2.404 61.268C2.132 60.644 1.996 59.916 1.996 59.084C1.996 58.308 2.14 57.58 2.428 56.9C2.716 56.22 3.12 55.624 3.64 55.112C4.16 54.6 4.784 54.196 5.512 53.9C6.24 53.604 7.044 53.456 7.924 53.456C8.812 53.456 9.608 53.596 10.312 53.876C11.024 54.156 11.628 54.548 12.124 55.052C12.628 55.556 13.012 56.16 13.276 56.864C13.548 57.568 13.684 58.34 13.684 59.18C13.684 59.716 13.636 60.224 13.54 60.704C13.452 61.184 13.324 61.648 13.156 62.096C12.988 62.536 12.784 62.968 12.544 63.392C12.304 63.816 12.036 64.236 11.74 64.652L7.768 70.316C7.632 70.508 7.428 70.672 7.156 70.808C6.884 70.936 6.576 71 6.232 71H3.508L8.896 64.268ZM21.8579 58.688V71.42C21.8579 71.956 21.7859 72.46 21.6419 72.932C21.5059 73.404 21.2819 73.816 20.9699 74.168C20.6659 74.528 20.2619 74.808 19.7579 75.008C19.2619 75.216 18.6539 75.32 17.9339 75.32C17.6539 75.32 17.3939 75.3 17.1539 75.26C16.9139 75.228 16.6659 75.172 16.4099 75.092L16.5179 73.496C16.5419 73.336 16.6059 73.232 16.7099 73.184C16.8139 73.144 17.0139 73.124 17.3099 73.124C17.6059 73.124 17.8539 73.092 18.0539 73.028C18.2619 72.972 18.4259 72.876 18.5459 72.74C18.6659 72.612 18.7499 72.44 18.7979 72.224C18.8539 72.008 18.8819 71.74 18.8819 71.42V58.688H21.8579ZM22.2659 55.1C22.2659 55.356 22.2139 55.596 22.1099 55.82C22.0059 56.044 21.8659 56.24 21.6899 56.408C21.5219 56.576 21.3179 56.712 21.0779 56.816C20.8459 56.912 20.5979 56.96 20.3339 56.96C20.0779 56.96 19.8379 56.912 19.6139 56.816C19.3899 56.712 19.1939 56.576 19.0259 56.408C18.8579 56.24 18.7219 56.044 18.6179 55.82C18.5219 55.596 18.4739 55.356 18.4739 55.1C18.4739 54.836 18.5219 54.588 18.6179 54.356C18.7219 54.124 18.8579 53.924 19.0259 53.756C19.1939 53.588 19.3899 53.456 19.6139 53.36C19.8379 53.256 20.0779 53.204 20.3339 53.204C20.5979 53.204 20.8459 53.256 21.0779 53.36C21.3179 53.456 21.5219 53.588 21.6899 53.756C21.8659 53.924 22.0059 54.124 22.1099 54.356C22.2139 54.588 22.2659 54.836 22.2659 55.1ZM38.1636 61.376C37.9076 61.328 37.6436 61.304 37.3716 61.304C36.8756 61.304 36.4116 61.412 35.9796 61.628C35.5476 61.844 35.1716 62.136 34.8516 62.504C34.5396 62.872 34.2916 63.296 34.1076 63.776C33.9236 64.248 33.8316 64.74 33.8316 65.252C33.8316 65.764 33.9396 66.164 34.1556 66.452C34.3796 66.732 34.7036 66.872 35.1276 66.872C35.3356 66.872 35.5436 66.84 35.7516 66.776C35.9676 66.712 36.1716 66.6 36.3636 66.44C36.5556 66.272 36.7316 66.052 36.8916 65.78C37.0516 65.508 37.1836 65.168 37.2876 64.76L38.1636 61.376ZM39.5676 64.448C39.4396 64.96 39.3756 65.38 39.3756 65.708C39.3836 66.028 39.4356 66.284 39.5316 66.476C39.6276 66.66 39.7636 66.788 39.9396 66.86C40.1156 66.932 40.3156 66.968 40.5396 66.968C40.8756 66.968 41.1916 66.864 41.4876 66.656C41.7916 66.44 42.0556 66.14 42.2796 65.756C42.5036 65.372 42.6796 64.916 42.8076 64.388C42.9436 63.86 43.0116 63.284 43.0116 62.66C43.0116 61.62 42.8476 60.704 42.5196 59.912C42.1996 59.12 41.7476 58.46 41.1636 57.932C40.5796 57.396 39.8836 56.996 39.0756 56.732C38.2756 56.46 37.3956 56.324 36.4356 56.324C35.3796 56.324 34.4036 56.524 33.5076 56.924C32.6116 57.316 31.8316 57.856 31.1676 58.544C30.5116 59.232 29.9956 60.044 29.6196 60.98C29.2516 61.916 29.0676 62.924 29.0676 64.004C29.0676 65.316 29.2716 66.472 29.6796 67.472C30.0876 68.464 30.6476 69.296 31.3596 69.968C32.0716 70.632 32.9076 71.132 33.8676 71.468C34.8356 71.804 35.8796 71.972 36.9996 71.972C37.6156 71.972 38.1916 71.936 38.7276 71.864C39.2636 71.8 39.7556 71.708 40.2036 71.588C40.6516 71.476 41.0596 71.344 41.4276 71.192C41.7956 71.048 42.1236 70.892 42.4116 70.724C42.6196 70.604 42.8036 70.568 42.9636 70.616C43.1236 70.664 43.2396 70.784 43.3116 70.976L43.7196 72.044C42.8876 72.588 41.9156 73.032 40.8036 73.376C39.6916 73.72 38.4236 73.892 36.9996 73.892C35.5516 73.892 34.2116 73.664 32.9796 73.208C31.7476 72.752 30.6796 72.096 29.7756 71.24C28.8796 70.392 28.1756 69.356 27.6636 68.132C27.1596 66.908 26.9076 65.532 26.9076 64.004C26.9076 63.148 27.0156 62.316 27.2316 61.508C27.4556 60.7 27.7716 59.944 28.1796 59.24C28.5876 58.528 29.0796 57.876 29.6556 57.284C30.2316 56.692 30.8716 56.184 31.5756 55.76C32.2796 55.336 33.0396 55.008 33.8556 54.776C34.6796 54.536 35.5396 54.416 36.4356 54.416C37.5716 54.416 38.6596 54.608 39.6996 54.992C40.7476 55.368 41.6716 55.912 42.4716 56.624C43.2796 57.328 43.9236 58.192 44.4036 59.216C44.8836 60.232 45.1236 61.38 45.1236 62.66C45.1236 63.516 44.9956 64.32 44.7396 65.072C44.4916 65.816 44.1396 66.464 43.6836 67.016C43.2356 67.568 42.7036 68.004 42.0876 68.324C41.4796 68.636 40.8156 68.792 40.0956 68.792C39.5436 68.792 39.0556 68.664 38.6316 68.408C38.2076 68.152 37.9156 67.74 37.7556 67.172C37.2836 67.748 36.7836 68.16 36.2556 68.408C35.7276 68.656 35.1556 68.78 34.5396 68.78C34.0356 68.78 33.5956 68.692 33.2196 68.516C32.8516 68.34 32.5396 68.1 32.2836 67.796C32.0356 67.484 31.8476 67.12 31.7196 66.704C31.5996 66.28 31.5396 65.82 31.5396 65.324C31.5396 64.868 31.5956 64.408 31.7076 63.944C31.8276 63.472 32.0036 63.02 32.2356 62.588C32.4676 62.148 32.7556 61.74 33.0996 61.364C33.4516 60.98 33.8596 60.648 34.3236 60.368C34.7956 60.08 35.3236 59.856 35.9076 59.696C36.4996 59.528 37.1476 59.444 37.8516 59.444C38.4756 59.444 39.0076 59.492 39.4476 59.588C39.8876 59.684 40.3116 59.82 40.7196 59.996L39.5676 64.448ZM56.0376 62.372C56.6296 62.372 57.1456 62.3 57.5856 62.156C58.0256 62.004 58.3896 61.792 58.6776 61.52C58.9736 61.24 59.1936 60.904 59.3376 60.512C59.4816 60.112 59.5536 59.668 59.5536 59.18C59.5536 58.716 59.4816 58.296 59.3376 57.92C59.1936 57.544 58.9776 57.224 58.6896 56.96C58.4016 56.696 58.0376 56.496 57.5976 56.36C57.1576 56.216 56.6376 56.144 56.0376 56.144H53.6256V62.372H56.0376ZM56.0376 53.648C57.1976 53.648 58.2016 53.784 59.0496 54.056C59.8976 54.328 60.5976 54.708 61.1496 55.196C61.7016 55.684 62.1096 56.268 62.3736 56.948C62.6456 57.628 62.7816 58.372 62.7816 59.18C62.7816 60.02 62.6416 60.792 62.3616 61.496C62.0816 62.192 61.6616 62.792 61.1016 63.296C60.5416 63.8 59.8376 64.192 58.9896 64.472C58.1496 64.752 57.1656 64.892 56.0376 64.892H53.6256V71H50.3976V53.648H56.0376ZM69.7975 60.824C70.1815 60.088 70.6375 59.512 71.1655 59.096C71.6935 58.672 72.3175 58.46 73.0375 58.46C73.6055 58.46 74.0615 58.584 74.4055 58.832L74.2135 61.052C74.1735 61.196 74.1135 61.3 74.0335 61.364C73.9615 61.42 73.8615 61.448 73.7335 61.448C73.6135 61.448 73.4335 61.428 73.1935 61.388C72.9615 61.348 72.7335 61.328 72.5095 61.328C72.1815 61.328 71.8895 61.376 71.6335 61.472C71.3775 61.568 71.1455 61.708 70.9375 61.892C70.7375 62.068 70.5575 62.284 70.3975 62.54C70.2455 62.796 70.1015 63.088 69.9655 63.416V71H67.0015V58.688H68.7415C69.0455 58.688 69.2575 58.744 69.3775 58.856C69.4975 58.96 69.5775 59.152 69.6175 59.432L69.7975 60.824ZM83.4511 58.496C84.3631 58.496 85.1911 58.644 85.9351 58.94C86.6871 59.236 87.3271 59.656 87.8551 60.2C88.3911 60.744 88.8031 61.408 89.0911 62.192C89.3791 62.976 89.5231 63.852 89.5231 64.82C89.5231 65.796 89.3791 66.676 89.0911 67.46C88.8031 68.244 88.3911 68.912 87.8551 69.464C87.3271 70.016 86.6871 70.44 85.9351 70.736C85.1911 71.032 84.3631 71.18 83.4511 71.18C82.5311 71.18 81.6951 71.032 80.9431 70.736C80.1911 70.44 79.5471 70.016 79.0111 69.464C78.4831 68.912 78.0711 68.244 77.7751 67.46C77.4871 66.676 77.3431 65.796 77.3431 64.82C77.3431 63.852 77.4871 62.976 77.7751 62.192C78.0711 61.408 78.4831 60.744 79.0111 60.2C79.5471 59.656 80.1911 59.236 80.9431 58.94C81.6951 58.644 82.5311 58.496 83.4511 58.496ZM83.4511 68.9C84.4751 68.9 85.2311 68.556 85.7191 67.868C86.2151 67.18 86.4631 66.172 86.4631 64.844C86.4631 63.516 86.2151 62.504 85.7191 61.808C85.2311 61.112 84.4751 60.764 83.4511 60.764C82.4111 60.764 81.6391 61.116 81.1351 61.82C80.6391 62.516 80.3911 63.524 80.3911 64.844C80.3911 66.164 80.6391 67.172 81.1351 67.868C81.6391 68.556 82.4111 68.9 83.4511 68.9ZM97.1483 67.808C97.4843 68.216 97.8483 68.504 98.2403 68.672C98.6403 68.84 99.0723 68.924 99.5363 68.924C99.9843 68.924 100.388 68.84 100.748 68.672C101.108 68.504 101.412 68.248 101.66 67.904C101.916 67.56 102.112 67.128 102.248 66.608C102.384 66.08 102.452 65.46 102.452 64.748C102.452 64.028 102.392 63.42 102.272 62.924C102.16 62.42 101.996 62.012 101.78 61.7C101.564 61.388 101.3 61.16 100.988 61.016C100.684 60.872 100.336 60.8 99.9443 60.8C99.3283 60.8 98.8043 60.932 98.3723 61.196C97.9403 61.452 97.5323 61.816 97.1483 62.288V67.808ZM96.9923 60.368C97.4963 59.8 98.0683 59.34 98.7083 58.988C99.3483 58.636 100.1 58.46 100.964 58.46C101.636 58.46 102.248 58.6 102.8 58.88C103.36 59.16 103.84 59.568 104.24 60.104C104.648 60.632 104.96 61.288 105.176 62.072C105.4 62.848 105.512 63.74 105.512 64.748C105.512 65.668 105.388 66.52 105.14 67.304C104.892 68.088 104.536 68.768 104.072 69.344C103.616 69.92 103.06 70.372 102.404 70.7C101.756 71.02 101.028 71.18 100.22 71.18C99.5323 71.18 98.9443 71.076 98.4563 70.868C97.9683 70.652 97.5323 70.356 97.1483 69.98V75.02H94.1843V58.688H95.9963C96.3803 58.688 96.6323 58.868 96.7523 59.228L96.9923 60.368ZM118.157 63.428C118.157 63.044 118.101 62.684 117.989 62.348C117.885 62.004 117.725 61.704 117.509 61.448C117.293 61.192 117.017 60.992 116.681 60.848C116.353 60.696 115.969 60.62 115.529 60.62C114.673 60.62 113.997 60.864 113.501 61.352C113.013 61.84 112.701 62.532 112.565 63.428H118.157ZM112.505 65.216C112.553 65.848 112.665 66.396 112.841 66.86C113.017 67.316 113.249 67.696 113.537 68C113.825 68.296 114.165 68.52 114.557 68.672C114.957 68.816 115.397 68.888 115.877 68.888C116.357 68.888 116.769 68.832 117.113 68.72C117.465 68.608 117.769 68.484 118.025 68.348C118.289 68.212 118.517 68.088 118.709 67.976C118.909 67.864 119.101 67.808 119.285 67.808C119.533 67.808 119.717 67.9 119.837 68.084L120.689 69.164C120.361 69.548 119.993 69.872 119.585 70.136C119.177 70.392 118.749 70.6 118.301 70.76C117.861 70.912 117.409 71.02 116.945 71.084C116.489 71.148 116.045 71.18 115.613 71.18C114.757 71.18 113.961 71.04 113.225 70.76C112.489 70.472 111.849 70.052 111.305 69.5C110.761 68.94 110.333 68.252 110.021 67.436C109.709 66.612 109.553 65.66 109.553 64.58C109.553 63.74 109.689 62.952 109.961 62.216C110.233 61.472 110.621 60.828 111.125 60.284C111.637 59.732 112.257 59.296 112.985 58.976C113.721 58.656 114.549 58.496 115.469 58.496C116.245 58.496 116.961 58.62 117.617 58.868C118.273 59.116 118.837 59.48 119.309 59.96C119.781 60.432 120.149 61.016 120.413 61.712C120.685 62.4 120.821 63.188 120.821 64.076C120.821 64.524 120.773 64.828 120.677 64.988C120.581 65.14 120.397 65.216 120.125 65.216H112.505ZM128.241 60.824C128.625 60.088 129.081 59.512 129.609 59.096C130.137 58.672 130.761 58.46 131.481 58.46C132.049 58.46 132.505 58.584 132.849 58.832L132.657 61.052C132.617 61.196 132.557 61.3 132.477 61.364C132.405 61.42 132.305 61.448 132.177 61.448C132.057 61.448 131.877 61.428 131.637 61.388C131.405 61.348 131.177 61.328 130.953 61.328C130.625 61.328 130.333 61.376 130.077 61.472C129.821 61.568 129.589 61.708 129.381 61.892C129.181 62.068 129.001 62.284 128.841 62.54C128.689 62.796 128.545 63.088 128.409 63.416V71H125.445V58.688H127.185C127.489 58.688 127.701 58.744 127.821 58.856C127.941 58.96 128.021 59.152 128.061 59.432L128.241 60.824ZM140.902 71.192C139.83 71.192 139.006 70.892 138.43 70.292C137.862 69.684 137.578 68.848 137.578 67.784V60.908H136.318C136.158 60.908 136.022 60.856 135.91 60.752C135.798 60.648 135.742 60.492 135.742 60.284V59.108L137.722 58.784L138.346 55.424C138.386 55.264 138.462 55.14 138.574 55.052C138.686 54.964 138.83 54.92 139.006 54.92H140.542V58.796H143.83V60.908H140.542V67.58C140.542 67.964 140.634 68.264 140.818 68.48C141.01 68.696 141.27 68.804 141.598 68.804C141.782 68.804 141.934 68.784 142.054 68.744C142.182 68.696 142.29 68.648 142.378 68.6C142.474 68.552 142.558 68.508 142.63 68.468C142.702 68.42 142.774 68.396 142.846 68.396C142.934 68.396 143.006 68.42 143.062 68.468C143.118 68.508 143.178 68.572 143.242 68.66L144.13 70.1C143.698 70.46 143.202 70.732 142.642 70.916C142.082 71.1 141.502 71.192 140.902 71.192ZM159.312 58.688L152.604 74.384C152.516 74.592 152.4 74.748 152.256 74.852C152.12 74.964 151.908 75.02 151.62 75.02H149.412L151.716 70.076L146.736 58.688H149.34C149.572 58.688 149.752 58.744 149.88 58.856C150.016 58.968 150.116 59.096 150.18 59.24L152.796 65.624C152.884 65.84 152.956 66.056 153.012 66.272C153.076 66.488 153.136 66.708 153.192 66.932C153.264 66.708 153.336 66.488 153.408 66.272C153.48 66.048 153.56 65.828 153.648 65.612L156.12 59.24C156.184 59.08 156.288 58.948 156.432 58.844C156.584 58.74 156.752 58.688 156.936 58.688H159.312ZM178.046 53.648V71H174.806V63.416H166.658V71H163.418V53.648H166.658V61.112H174.806V53.648H178.046ZM194.216 58.688V71H192.404C192.012 71 191.764 70.82 191.66 70.46L191.456 69.476C190.952 69.988 190.396 70.404 189.788 70.724C189.18 71.036 188.464 71.192 187.64 71.192C186.968 71.192 186.372 71.08 185.852 70.856C185.34 70.624 184.908 70.3 184.556 69.884C184.204 69.468 183.936 68.976 183.752 68.408C183.576 67.832 183.488 67.2 183.488 66.512V58.688H186.452V66.512C186.452 67.264 186.624 67.848 186.968 68.264C187.32 68.672 187.844 68.876 188.54 68.876C189.052 68.876 189.532 68.764 189.98 68.54C190.428 68.308 190.852 67.992 191.252 67.592V58.688H194.216ZM202.519 67.808C202.855 68.216 203.219 68.504 203.611 68.672C204.011 68.84 204.431 68.924 204.871 68.924C205.327 68.924 205.735 68.844 206.095 68.684C206.463 68.516 206.775 68.26 207.031 67.916C207.287 67.564 207.483 67.12 207.619 66.584C207.755 66.04 207.823 65.392 207.823 64.64C207.823 63.288 207.599 62.312 207.151 61.712C206.703 61.104 206.059 60.8 205.219 60.8C204.651 60.8 204.155 60.932 203.731 61.196C203.307 61.452 202.903 61.816 202.519 62.288V67.808ZM202.519 60.2C203.015 59.68 203.563 59.268 204.163 58.964C204.771 58.652 205.463 58.496 206.239 58.496C206.951 58.496 207.591 58.636 208.159 58.916C208.735 59.196 209.223 59.6 209.623 60.128C210.031 60.648 210.343 61.28 210.559 62.024C210.775 62.768 210.883 63.604 210.883 64.532C210.883 65.532 210.759 66.44 210.511 67.256C210.263 68.072 209.907 68.772 209.443 69.356C208.987 69.932 208.435 70.38 207.787 70.7C207.139 71.02 206.419 71.18 205.627 71.18C205.243 71.18 204.895 71.14 204.583 71.06C204.271 70.988 203.983 70.884 203.719 70.748C203.455 70.612 203.211 70.448 202.987 70.256C202.771 70.056 202.563 69.836 202.363 69.596L202.231 70.424C202.183 70.632 202.099 70.78 201.979 70.868C201.867 70.956 201.711 71 201.511 71H199.555V53.168H202.519V60.2Z" fill="url(#paint19_linear_1_5)"/>
<path d="M214.516 77.7837H0V81.0002H228L214.516 77.7837Z" fill="url(#paint20_linear_1_5)"/>
<defs>
<linearGradient id="paint0_linear_1_5" x1="64.5" y1="0.487793" x2="64.5" y2="27" gradientUnits="userSpaceOnUse">
<stop stop-color="#5264F9"/>
<stop offset="1" stop-color="#357AFF"/>
</linearGradient>
<linearGradient id="paint1_linear_1_5" x1="45.8289" y1="20.9478" x2="69.304" y2="42.9706" gradientUnits="userSpaceOnUse">
<stop stop-color="#3654FA"/>
<stop offset="1" stop-color="#357AFF"/>
</linearGradient>
<linearGradient id="paint2_linear_1_5" x1="52.3998" y1="33.936" x2="52.3998" y2="40.082" gradientUnits="userSpaceOnUse">
<stop stop-color="#3654FA"/>
<stop offset="1" stop-color="#357AFF"/>
</linearGradient>
<linearGradient id="paint3_linear_1_5" x1="62.7865" y1="33.936" x2="62.7865" y2="40.082" gradientUnits="userSpaceOnUse">
<stop stop-color="#3654FA"/>
<stop offset="1" stop-color="#357AFF"/>
</linearGradient>
<linearGradient id="paint4_linear_1_5" x1="52.3998" y1="42.9502" x2="52.3998" y2="49.0961" gradientUnits="userSpaceOnUse">
<stop stop-color="#3654FA"/>
<stop offset="1" stop-color="#357AFF"/>
</linearGradient>
<linearGradient id="paint5_linear_1_5" x1="62.7875" y1="42.9502" x2="62.7875" y2="49.0961" gradientUnits="userSpaceOnUse">
<stop stop-color="#3654FA"/>
<stop offset="1" stop-color="#357AFF"/>
</linearGradient>
<linearGradient id="paint6_linear_1_5" x1="150.5" y1="19" x2="150.5" y2="38" gradientUnits="userSpaceOnUse">
<stop stop-color="#3654FA"/>
<stop offset="1" stop-color="#357AFF"/>
</linearGradient>
<linearGradient id="paint7_linear_1_5" x1="123.019" y1="28.583" x2="123.019" y2="32.556" gradientUnits="userSpaceOnUse">
<stop stop-color="#3654FA"/>
<stop offset="1" stop-color="#357AFF"/>
</linearGradient>
<linearGradient id="paint8_linear_1_5" x1="128.955" y1="28.583" x2="128.955" y2="32.556" gradientUnits="userSpaceOnUse">
<stop stop-color="#3654FA"/>
<stop offset="1" stop-color="#357AFF"/>
</linearGradient>
<linearGradient id="paint9_linear_1_5" x1="123.019" y1="34.4102" x2="123.019" y2="38.3831" gradientUnits="userSpaceOnUse">
<stop stop-color="#3654FA"/>
<stop offset="1" stop-color="#357AFF"/>
</linearGradient>
<linearGradient id="paint10_linear_1_5" x1="128.955" y1="34.4102" x2="128.955" y2="38.3831" gradientUnits="userSpaceOnUse">
<stop stop-color="#3654FA"/>
<stop offset="1" stop-color="#357AFF"/>
</linearGradient>
<linearGradient id="paint11_linear_1_5" x1="85.8378" y1="22.3203" x2="85.8378" y2="24.4786" gradientUnits="userSpaceOnUse">
<stop stop-color="#3654FA"/>
<stop offset="1" stop-color="#357AFF"/>
</linearGradient>
<linearGradient id="paint12_linear_1_5" x1="91.7736" y1="22.3203" x2="91.7736" y2="24.4786" gradientUnits="userSpaceOnUse">
<stop stop-color="#3654FA"/>
<stop offset="1" stop-color="#357AFF"/>
</linearGradient>
<linearGradient id="paint13_linear_1_5" x1="85.8378" y1="25.4858" x2="85.8378" y2="27.6442" gradientUnits="userSpaceOnUse">
<stop stop-color="#3654FA"/>
<stop offset="1" stop-color="#357AFF"/>
</linearGradient>
<linearGradient id="paint14_linear_1_5" x1="91.7734" y1="25.4858" x2="91.7734" y2="27.6442" gradientUnits="userSpaceOnUse">
<stop stop-color="#3654FA"/>
<stop offset="1" stop-color="#357AFF"/>
</linearGradient>
<linearGradient id="paint15_linear_1_5" x1="89.5419" y1="15.1333" x2="89.5419" y2="38.2921" gradientUnits="userSpaceOnUse">
<stop stop-color="#357AFF" stop-opacity="0.6"/>
<stop offset="1" stop-color="#5264F9"/>
</linearGradient>
<radialGradient id="paint16_angular_1_5" cx="0" cy="0" r="1" gradientUnits="userSpaceOnUse" gradientTransform="translate(108.91 28.9752) rotate(-139.732) scale(38.4375 21.9192)">
<stop stop-color="#357AFF"/>
<stop offset="1" stop-color="#357AFF" stop-opacity="0.32"/>
</radialGradient>
<linearGradient id="paint17_linear_1_5" x1="103.883" y1="14" x2="103.883" y2="19.457" gradientUnits="userSpaceOnUse">
<stop stop-color="#3654FA"/>
<stop offset="1" stop-color="#357AFF"/>
</linearGradient>
<linearGradient id="paint18_linear_1_5" x1="103.883" y1="14" x2="103.883" y2="19.457" gradientUnits="userSpaceOnUse">
<stop stop-color="#3654FA"/>
<stop offset="1" stop-color="#357AFF"/>
</linearGradient>
<linearGradient id="paint19_linear_1_5" x1="110.5" y1="47" x2="110.5" y2="76" gradientUnits="userSpaceOnUse">
<stop offset="0.607292" stop-color="#3654FA"/>
<stop offset="0.690625" stop-color="#5264F9"/>
</linearGradient>
<linearGradient id="paint20_linear_1_5" x1="114" y1="77.7837" x2="114" y2="81.0002" gradientUnits="userSpaceOnUse">
<stop stop-color="#3654FA"/>
<stop offset="1" stop-color="#357AFF"/>
</linearGradient>
<clipPath id="clip0_1_5">
<rect width="33" height="27" fill="white" transform="translate(48)"/>
</clipPath>
</defs>
</svg>
