<svg width="17" height="16" viewBox="0 0 17 16" fill="none" xmlns="http://www.w3.org/2000/svg">
<path d="M6.92962 12.6665C6.77385 12.6669 6.62289 12.6126 6.50295 12.5132C6.43545 12.4572 6.37965 12.3885 6.33874 12.3109C6.29784 12.2334 6.27265 12.1485 6.2646 12.0612C6.25654 11.9739 6.2658 11.8858 6.29183 11.8021C6.31786 11.7184 6.36015 11.6406 6.41629 11.5732L9.40295 7.99988L6.52295 4.41988C6.46758 4.35169 6.42622 4.27322 6.40127 4.189C6.37631 4.10477 6.36825 4.01644 6.37754 3.92909C6.38684 3.84174 6.4133 3.75708 6.45542 3.67999C6.49753 3.6029 6.55447 3.53489 6.62295 3.47988C6.69193 3.41919 6.77271 3.37341 6.86022 3.34542C6.94772 3.31742 7.04007 3.30782 7.13147 3.31721C7.22286 3.3266 7.31133 3.35478 7.39132 3.39998C7.47131 3.44518 7.54109 3.50643 7.59629 3.57988L10.8163 7.57988C10.9143 7.69917 10.9679 7.8488 10.9679 8.00321C10.9679 8.15763 10.9143 8.30726 10.8163 8.42655L7.48295 12.4265C7.41607 12.5072 7.33112 12.571 7.23498 12.6127C7.13884 12.6544 7.03422 12.6728 6.92962 12.6665Z" fill="#357AFF"/>
</svg>
