<svg width="18" height="19" viewBox="0 0 18 19" fill="none" xmlns="http://www.w3.org/2000/svg">
<path d="M15 3.50635V15.5063H3V3.50635H15ZM15 2.00635H3C2.175 2.00635 1.5 2.68135 1.5 3.50635V15.5063C1.5 16.3313 2.175 17.0063 3 17.0063H15C15.825 17.0063 16.5 16.3313 16.5 15.5063V3.50635C16.5 2.68135 15.825 2.00635 15 2.00635ZM12.375 8.50885V7.25635C12.375 6.43135 11.7 5.75635 10.875 5.75635H7.125C6.3 5.75635 5.625 6.43135 5.625 7.25635V8.50885C4.965 8.77135 4.5 9.40885 4.5 10.1588V13.2563H5.625V12.1313H12.375V13.2563H13.5V10.1588C13.5 9.40885 13.035 8.77135 12.375 8.50885ZM11.25 6.88135V8.38135H6.75V6.88135H11.25ZM5.625 10.1588C5.625 9.79885 5.9175 9.50635 6.2775 9.50635H11.73C12.09 9.50635 12.3825 9.79885 12.3825 10.1588V11.0063H5.6325V10.1588H5.625Z" fill="#3A3A3A"/>
</svg>
