<svg width="18" height="19" viewBox="0 0 18 19" fill="none" xmlns="http://www.w3.org/2000/svg">
<path d="M6.67969 12.6538H11.3203C11.3977 12.6538 11.4609 12.5905 11.4609 12.5132V11.0366C11.4609 10.9593 11.3977 10.896 11.3203 10.896H10.6172C10.5399 10.896 10.4766 10.9593 10.4766 11.0366V11.6695H7.52344V11.0366C7.52344 10.9593 7.46016 10.896 7.38282 10.896H6.67969C6.60235 10.896 6.53907 10.9593 6.53907 11.0366V12.5132C6.53907 12.5905 6.60235 12.6538 6.67969 12.6538ZM12.6563 10.4917C12.6563 10.6782 12.7303 10.857 12.8622 10.9889C12.9941 11.1208 13.1729 11.1948 13.3594 11.1948C13.5459 11.1948 13.7247 11.1208 13.8566 10.9889C13.9884 10.857 14.0625 10.6782 14.0625 10.4917C14.0625 10.3052 13.9884 10.1264 13.8566 9.99453C13.7247 9.86267 13.5459 9.78859 13.3594 9.78859C13.1729 9.78859 12.9941 9.86267 12.8622 9.99453C12.7303 10.1264 12.6563 10.3052 12.6563 10.4917ZM16.8574 7.54562L16.4408 6.81789C16.4221 6.78581 16.3914 6.76244 16.3555 6.75289C16.3196 6.74334 16.2814 6.74838 16.2492 6.76691L15.358 7.28722L13.9816 3.48683C13.909 3.26006 13.7661 3.06225 13.5737 2.92197C13.3813 2.78168 13.1493 2.70618 12.9111 2.70636H5.29454C4.68457 2.70636 4.14317 3.10011 3.95508 3.68195L2.64375 7.28898L1.75078 6.76867C1.71859 6.75014 1.68037 6.74509 1.64447 6.75464C1.60857 6.7642 1.57791 6.78756 1.55918 6.81964L1.14258 7.54562C1.10391 7.61242 1.12676 7.69679 1.19356 7.73547L2.25528 8.35422L2.00039 9.05734C1.9793 9.11359 1.96875 9.17336 1.96875 9.23312V15.3538C1.96875 15.6298 2.17618 15.853 2.43106 15.853H3.61934C3.83555 15.853 4.02364 15.6896 4.06934 15.4611L4.20469 14.7984H13.7953L13.9307 15.4611C13.9781 15.6896 14.1645 15.853 14.3807 15.853H15.569C15.8238 15.853 16.0313 15.6298 16.0313 15.3538V9.23312C16.0313 9.17336 16.0207 9.11359 15.9996 9.05734L15.7447 8.35422L16.8047 7.73547C16.8366 7.71704 16.86 7.68683 16.8699 7.65132C16.8797 7.61582 16.8753 7.57787 16.8574 7.54562ZM14.7656 9.36672V13.5327H3.23438V9.36672L3.5086 8.61086H14.4914L14.7656 9.36672ZM5.14512 4.11261L5.15391 4.08976L5.16094 4.06691C5.18028 4.0089 5.23301 3.97023 5.29454 3.97023H12.8109L14.1363 7.62648H3.86719L5.14512 4.11261ZM3.9375 10.4917C3.9375 10.6782 4.01158 10.857 4.14344 10.9889C4.27531 11.1208 4.45415 11.1948 4.64063 11.1948C4.82711 11.1948 5.00595 11.1208 5.13781 10.9889C5.26968 10.857 5.34375 10.6782 5.34375 10.4917C5.34375 10.3052 5.26968 10.1264 5.13781 9.99453C5.00595 9.86267 4.82711 9.78859 4.64063 9.78859C4.45415 9.78859 4.27531 9.86267 4.14344 9.99453C4.01158 10.1264 3.9375 10.3052 3.9375 10.4917Z" fill="#3A3A3A"/>
</svg>
