<svg width="38" height="38" viewBox="0 0 38 38" fill="none" xmlns="http://www.w3.org/2000/svg">
<path d="M11.7188 15.2344H25.7812V17.5781H11.7188V15.2344Z" fill="white"/>
<path d="M11.7188 21.0938H25.7812V23.4375H11.7188V21.0938Z" fill="white"/>
<path d="M35.1562 7.51641L33.4992 5.85938L29.5734 9.78516C29.0129 9.10933 28.3907 8.48712 27.7148 7.92656L31.6406 4.00078L29.9836 2.34375L25.7531 6.57422C23.0766 5.02808 19.9646 4.4085 16.8999 4.81161C13.8353 5.21471 10.9894 6.61797 8.80366 8.80366C6.61797 10.9894 5.21471 13.8353 4.81161 16.8999C4.4085 19.9646 5.02808 23.0766 6.57422 25.7531L2.34375 29.9836L4.00078 31.6406L7.92656 27.7148C8.48712 28.3907 9.10933 29.0129 9.78516 29.5734L5.85938 33.4992L7.51641 35.1562L11.7469 30.9258C14.4234 32.4719 17.5354 33.0915 20.6001 32.6884C23.6647 32.2853 26.5106 30.882 28.6963 28.6963C30.882 26.5106 32.2853 23.6647 32.6884 20.6001C33.0915 17.5354 32.4719 14.4234 30.9258 11.7469L35.1562 7.51641ZM18.75 30.4688C16.4323 30.4688 14.1665 29.7815 12.2394 28.4938C10.3123 27.2061 8.81025 25.3759 7.92329 23.2346C7.03632 21.0932 6.80425 18.737 7.25642 16.4638C7.70859 14.1906 8.8247 12.1025 10.4636 10.4636C12.1025 8.8247 14.1906 7.70859 16.4638 7.25642C18.737 6.80425 21.0932 7.03632 23.2346 7.92329C25.3759 8.81025 27.2061 10.3123 28.4938 12.2394C29.7815 14.1665 30.4688 16.4323 30.4688 18.75C30.4653 21.857 29.2296 24.8357 27.0326 27.0326C24.8357 29.2296 21.857 30.4653 18.75 30.4688Z" fill="white"/>
</svg>
