<svg width="38" height="38" viewBox="0 0 38 38" fill="none" xmlns="http://www.w3.org/2000/svg">
<path d="M26.1875 17.25L23.9687 15.0312L17.3437 21.6719L14.0312 18.3438L11.8125 20.5625L17.3437 26.0938L26.1875 17.25Z" fill="#FBFBFB"/>
<path d="M29.9375 6.5H8.0625C7.2337 6.5 6.43884 6.82924 5.85279 7.41529C5.26674 8.00134 4.9375 8.7962 4.9375 9.625V28.375C4.9375 29.2038 5.26674 29.9986 5.85279 30.5847C6.43884 31.1708 7.2337 31.5 8.0625 31.5H29.9375C31.6562 31.5 33.0625 30.0937 33.0625 28.375V9.625C33.0625 8.7962 32.7333 8.00134 32.1472 7.41529C31.5612 6.82924 30.7663 6.5 29.9375 6.5ZM29.9375 28.375H8.0625V12.75H29.9375V28.375Z" fill="#FBFBFB"/>
</svg>
