<svg width="38" height="38" viewBox="0 0 38 38" fill="none" xmlns="http://www.w3.org/2000/svg">
<path d="M12.75 26.8125H15.875V25.25H17.4375C18.2969 25.25 19 24.5469 19 23.6875V19C19 18.1406 18.2969 17.4375 17.4375 17.4375H12.75V15.875H19V12.75H15.875V11.1875H12.75V12.75H11.1875C10.3281 12.75 9.625 13.4531 9.625 14.3125V19C9.625 19.8594 10.3281 20.5625 11.1875 20.5625H15.875V22.125H9.625V25.25H12.75V26.8125ZM31.5 6.5H6.5C4.76562 6.5 3.39062 7.89062 3.39062 9.625L3.375 28.375C3.375 30.1094 4.76562 31.5 6.5 31.5H31.5C33.2344 31.5 34.625 30.1094 34.625 28.375V9.625C34.625 7.89062 33.2344 6.5 31.5 6.5ZM31.5 28.375H6.5V9.625H31.5V28.375ZM22.125 15.875L25.25 12.75L28.375 15.875H22.125ZM28.375 22.5156L25.25 25.6406L22.125 22.5156" fill="#FBFBFB"/>
</svg>
