<svg width="1278" height="162" viewBox="0 0 1278 162" fill="none" xmlns="http://www.w3.org/2000/svg">
<path d="M86.9941 117.75C86.9941 115.1 86.6003 112.737 85.8125 110.66C85.0247 108.512 83.5924 106.542 81.5156 104.752C79.4388 102.962 76.5026 101.171 72.707 99.3809C68.9115 97.5189 63.9342 95.6211 57.7754 93.6875C50.7572 91.3958 44.0612 88.8177 37.6875 85.9531C31.3854 83.0169 25.7637 79.6152 20.8223 75.748C15.8809 71.8809 11.9779 67.3691 9.11328 62.2129C6.32031 57.0566 4.92383 51.041 4.92383 44.166C4.92383 37.5059 6.39193 31.4902 9.32812 26.1191C12.2643 20.748 16.3822 16.1647 21.6816 12.3691C26.9811 8.50195 33.2116 5.56576 40.373 3.56055C47.5345 1.48372 55.4121 0.445312 64.0059 0.445312C75.4642 0.445312 85.526 2.48633 94.1914 6.56836C102.928 10.5788 109.732 16.2363 114.602 23.541C119.471 30.7741 121.906 39.1888 121.906 48.7852H87.1016C87.1016 44.5599 86.2064 40.8359 84.416 37.6133C82.6973 34.319 80.0475 31.7409 76.4668 29.8789C72.9577 28.0169 68.5534 27.0859 63.2539 27.0859C58.0977 27.0859 53.765 27.8737 50.2559 29.4492C46.8184 30.9531 44.2044 33.0299 42.4141 35.6797C40.6953 38.3294 39.8359 41.2298 39.8359 44.3809C39.8359 46.8874 40.4805 49.179 41.7695 51.2559C43.1302 53.2611 45.0638 55.1589 47.5703 56.9492C50.1484 58.668 53.2995 60.3151 57.0234 61.8906C60.7474 63.4661 65.0085 64.9701 69.8066 66.4023C78.1855 69.0521 85.5977 71.9883 92.043 75.2109C98.5599 78.4336 104.038 82.0859 108.479 86.168C112.919 90.25 116.249 94.8691 118.469 100.025C120.76 105.182 121.906 111.018 121.906 117.535C121.906 124.482 120.546 130.641 117.824 136.012C115.174 141.383 111.307 145.966 106.223 149.762C101.21 153.486 95.194 156.314 88.1758 158.248C81.1576 160.182 73.3158 161.148 64.6504 161.148C56.7728 161.148 49.0026 160.146 41.3398 158.141C33.6771 156.064 26.7305 152.913 20.5 148.688C14.3411 144.462 9.39974 139.091 5.67578 132.574C2.02344 125.986 0.197266 118.18 0.197266 109.156H35.2168C35.2168 113.883 35.8971 117.893 37.2578 121.188C38.6185 124.41 40.5521 127.024 43.0586 129.029C45.6367 131.035 48.752 132.467 52.4043 133.326C56.0566 134.186 60.1387 134.615 64.6504 134.615C69.8783 134.615 74.1035 133.899 77.3262 132.467C80.6204 130.963 83.0553 128.922 84.6309 126.344C86.2064 123.766 86.9941 120.901 86.9941 117.75ZM288.479 131.93V159H205.227V131.93H288.479ZM217.151 2.59375V159H182.131V2.59375H217.151ZM277.737 65.543V91.7539H205.227V65.543H277.737ZM288.586 2.59375V29.7715H205.227V2.59375H288.586ZM345.266 2.59375H405.315C417.275 2.59375 427.623 4.38411 436.36 7.96484C445.169 11.5456 451.936 16.8451 456.663 23.8633C461.389 30.8815 463.753 39.5469 463.753 49.8594C463.753 58.4531 462.356 65.7578 459.563 71.7734C456.77 77.7891 452.832 82.7663 447.747 86.7051C442.734 90.6439 436.861 93.8307 430.13 96.2656L418.743 102.496H367.61L367.395 75.3184H405.423C410.651 75.3184 414.983 74.3874 418.421 72.5254C421.858 70.6634 424.436 68.0495 426.155 64.6836C427.945 61.2461 428.841 57.2357 428.841 52.6523C428.841 47.9258 427.945 43.8438 426.155 40.4062C424.365 36.9688 421.715 34.3548 418.206 32.5645C414.768 30.7025 410.471 29.7715 405.315 29.7715H380.286V159H345.266V2.59375ZM431.848 159L396.721 89.498L433.675 89.3906L469.339 157.389V159H431.848ZM582.737 124.303L617.542 2.59375H656.536L602.933 159H577.474L582.737 124.303ZM551.048 2.59375L585.745 124.303L591.224 159H565.443L512.161 2.59375H551.048ZM746.41 2.59375V159H711.498V2.59375H746.41ZM904.174 106.578H938.979C938.406 117.32 935.469 126.809 930.17 135.045C924.942 143.209 917.673 149.618 908.363 154.273C899.053 158.857 887.989 161.148 875.17 161.148C864.929 161.148 855.762 159.394 847.67 155.885C839.577 152.376 832.702 147.363 827.045 140.846C821.459 134.257 817.162 126.344 814.154 117.105C811.218 107.796 809.75 97.304 809.75 85.6309V76.0703C809.75 64.3971 811.29 53.9056 814.369 44.5957C817.449 35.2858 821.853 27.3366 827.582 20.748C833.311 14.1595 840.186 9.11068 848.207 5.60156C856.228 2.09245 865.18 0.337891 875.062 0.337891C888.383 0.337891 899.626 2.73698 908.793 7.53516C917.96 12.3333 925.049 18.9219 930.062 27.3008C935.147 35.6797 938.191 45.2402 939.193 55.9824H904.281C903.995 49.8952 902.849 44.7747 900.844 40.6211C898.839 36.3958 895.759 33.209 891.605 31.0605C887.452 28.9121 881.938 27.8379 875.062 27.8379C870.049 27.8379 865.645 28.7689 861.85 30.6309C858.126 32.4928 855.01 35.3932 852.504 39.332C850.069 43.2708 848.243 48.2839 847.025 54.3711C845.808 60.3867 845.199 67.5482 845.199 75.8555V85.6309C845.199 93.8665 845.736 100.992 846.811 107.008C847.885 113.023 849.604 118.001 851.967 121.939C854.402 125.878 857.517 128.814 861.312 130.748C865.108 132.682 869.727 133.648 875.17 133.648C881.4 133.648 886.592 132.682 890.746 130.748C894.9 128.743 898.087 125.735 900.307 121.725C902.527 117.714 903.816 112.665 904.174 106.578ZM1104.37 131.93V159H1021.12V131.93H1104.37ZM1033.04 2.59375V159H998.022V2.59375H1033.04ZM1093.63 65.543V91.7539H1021.12V65.543H1093.63ZM1104.48 2.59375V29.7715H1021.12V2.59375H1104.48ZM1242.26 117.75C1242.26 115.1 1241.87 112.737 1241.08 110.66C1240.29 108.512 1238.86 106.542 1236.78 104.752C1234.71 102.962 1231.77 101.171 1227.97 99.3809C1224.18 97.5189 1219.2 95.6211 1213.04 93.6875C1206.02 91.3958 1199.33 88.8177 1192.95 85.9531C1186.65 83.0169 1181.03 79.6152 1176.09 75.748C1171.15 71.8809 1167.24 67.3691 1164.38 62.2129C1161.59 57.0566 1160.19 51.041 1160.19 44.166C1160.19 37.5059 1161.66 31.4902 1164.59 26.1191C1167.53 20.748 1171.65 16.1647 1176.95 12.3691C1182.25 8.50195 1188.48 5.56576 1195.64 3.56055C1202.8 1.48372 1210.68 0.445312 1219.27 0.445312C1230.73 0.445312 1240.79 2.48633 1249.46 6.56836C1258.19 10.5788 1265 16.2363 1269.87 23.541C1274.74 30.7741 1277.17 39.1888 1277.17 48.7852H1242.37C1242.37 44.5599 1241.47 40.8359 1239.68 37.6133C1237.96 34.319 1235.31 31.7409 1231.73 29.8789C1228.22 28.0169 1223.82 27.0859 1218.52 27.0859C1213.36 27.0859 1209.03 27.8737 1205.52 29.4492C1202.08 30.9531 1199.47 33.0299 1197.68 35.6797C1195.96 38.3294 1195.1 41.2298 1195.1 44.3809C1195.1 46.8874 1195.75 49.179 1197.04 51.2559C1198.4 53.2611 1200.33 55.1589 1202.84 56.9492C1205.41 58.668 1208.57 60.3151 1212.29 61.8906C1216.01 63.4661 1220.27 64.9701 1225.07 66.4023C1233.45 69.0521 1240.86 71.9883 1247.31 75.2109C1253.83 78.4336 1259.3 82.0859 1263.74 86.168C1268.18 90.25 1271.52 94.8691 1273.74 100.025C1276.03 105.182 1277.17 111.018 1277.17 117.535C1277.17 124.482 1275.81 130.641 1273.09 136.012C1270.44 141.383 1266.57 145.966 1261.49 149.762C1256.48 153.486 1250.46 156.314 1243.44 158.248C1236.42 160.182 1228.58 161.148 1219.92 161.148C1212.04 161.148 1204.27 160.146 1196.61 158.141C1188.94 156.064 1182 152.913 1175.77 148.688C1169.61 144.462 1164.67 139.091 1160.94 132.574C1157.29 125.986 1155.46 118.18 1155.46 109.156H1190.48C1190.48 113.883 1191.16 117.893 1192.52 121.188C1193.88 124.41 1195.82 127.024 1198.32 129.029C1200.9 131.035 1204.02 132.467 1207.67 133.326C1211.32 134.186 1215.41 134.615 1219.92 134.615C1225.14 134.615 1229.37 133.899 1232.59 132.467C1235.89 130.963 1238.32 128.922 1239.9 126.344C1241.47 123.766 1242.26 120.901 1242.26 117.75Z" fill="#3A3A3A" fill-opacity="0.03"/>
</svg>
