<svg width="65" height="65" viewBox="0 0 65 65" fill="none" xmlns="http://www.w3.org/2000/svg">
<path d="M46.1771 54.925C43.5229 57.4979 40.625 57.0917 37.8354 55.8729C34.8833 54.6271 32.175 54.5729 29.0604 55.8729C25.1604 57.5521 23.1021 57.0646 20.7729 54.925C7.55625 41.3021 9.50625 20.5562 24.5104 19.7979C28.1667 19.9875 30.7125 21.8021 32.8521 21.9646C36.0479 21.3146 39.1083 19.4458 42.5208 19.6896C46.6104 20.0146 49.6979 21.6396 51.7292 24.5646C43.2792 29.6292 45.2833 40.7604 53.0292 43.875C51.4854 47.9375 49.4812 51.9729 46.15 54.9521L46.1771 54.925ZM32.5812 19.6354C32.175 13.5958 37.0771 8.6125 42.7104 8.125C43.4958 15.1125 36.3729 20.3125 32.5812 19.6354Z" fill="white"/>
</svg>
