<svg width="28" height="28" viewBox="0 0 28 28" fill="none" xmlns="http://www.w3.org/2000/svg">
<path d="M11.6667 22.1668C11.3941 22.1673 11.1299 22.0724 10.92 21.8984C10.8019 21.8005 10.7042 21.6802 10.6326 21.5445C10.5611 21.4087 10.517 21.2602 10.5029 21.1074C10.4888 20.9546 10.505 20.8005 10.5505 20.654C10.5961 20.5074 10.6701 20.3713 10.7683 20.2534L15.995 14.0001L10.955 7.73509C10.8581 7.61576 10.7857 7.47845 10.7421 7.33105C10.6984 7.18365 10.6843 7.02908 10.7005 6.87621C10.7168 6.72335 10.7631 6.5752 10.8368 6.44029C10.9105 6.30538 11.0102 6.18637 11.13 6.09009C11.2507 5.98388 11.3921 5.90377 11.5452 5.85478C11.6984 5.8058 11.86 5.78899 12.0199 5.80543C12.1799 5.82186 12.3347 5.87117 12.4747 5.95027C12.6146 6.02938 12.7367 6.13656 12.8333 6.26509L18.4683 13.2651C18.6399 13.4738 18.7337 13.7357 18.7337 14.0059C18.7337 14.2762 18.6399 14.538 18.4683 14.7468L12.635 21.7468C12.518 21.8879 12.3693 21.9996 12.2011 22.0725C12.0328 22.1455 11.8497 22.1778 11.6667 22.1668Z" fill="#C4C4C4"/>
</svg>
