<svg width="18" height="19" viewBox="0 0 18 19" fill="none" xmlns="http://www.w3.org/2000/svg">
<g clip-path="url(#clip0_1_1465)">
<path d="M16.3125 10.6857H2.8125V4.3576C2.81185 4.11929 2.85847 3.88322 2.94967 3.66304C3.04087 3.44287 3.17484 3.24298 3.34382 3.07493L3.35788 3.06087C3.6227 2.79644 3.9627 2.62021 4.33143 2.55627C4.70016 2.49233 5.07965 2.54378 5.41804 2.70361C5.09846 3.23496 4.96562 3.85787 5.04065 4.47336C5.11567 5.08886 5.39425 5.66163 5.83211 6.10065L6.2171 6.48564L5.50846 7.19432L6.3039 7.98977L7.01255 7.28112L10.9391 3.35463L11.6478 2.64599L10.8523 1.85051L10.1436 2.55915L9.7586 2.17416C9.29766 1.7145 8.69004 1.43115 8.04164 1.37348C7.39323 1.31582 6.74515 1.48749 6.21032 1.85859C5.64635 1.50243 4.97801 1.34867 4.3151 1.42258C3.65218 1.49648 3.03412 1.79366 2.56243 2.26528L2.54837 2.27934C2.27459 2.55163 2.05753 2.87551 1.90976 3.23224C1.76199 3.58898 1.68645 3.97148 1.6875 4.3576V10.6857H0.5625V11.8107H1.6875V12.89C1.68748 12.9807 1.7021 13.0708 1.73081 13.1568L2.77734 16.2963C2.83319 16.4643 2.94058 16.6106 3.08426 16.7141C3.22794 16.8177 3.4006 16.8734 3.57771 16.8732H4.03123L3.62109 18.2795H4.79296L5.20313 16.8732H12.5191L12.941 18.2795H14.1152L13.6934 16.8732H14.4222C14.5993 16.8734 14.772 16.8177 14.9157 16.7142C15.0594 16.6106 15.1668 16.4644 15.2227 16.2963L16.2691 13.1568C16.2978 13.0708 16.3125 12.9807 16.3125 12.89V11.8107H17.4375V10.6857H16.3125ZM6.62766 2.96963C6.93759 2.66037 7.35755 2.48669 7.79539 2.48669C8.23323 2.48669 8.65319 2.66037 8.96312 2.96963L9.34805 3.35463L7.01265 5.69002L6.62766 5.3051C6.31841 4.99515 6.14474 4.5752 6.14474 4.13737C6.14474 3.69953 6.31841 3.27958 6.62766 2.96963ZM15.1875 12.8443L14.2196 15.7482H3.78042L2.8125 12.8443V11.8107H15.1875V12.8443Z" fill="#3A3A3A"/>
</g>
<defs>
<clipPath id="clip0_1_1465">
<rect width="18" height="18" fill="white" transform="translate(0 0.84198)"/>
</clipPath>
</defs>
</svg>
