<svg width="38" height="38" viewBox="0 0 38 38" fill="none" xmlns="http://www.w3.org/2000/svg">
<g clip-path="url(#clip0_1_1815)">
<path d="M18.75 0.250028C13.9469 0.250028 9.14376 2.07815 5.48595 5.73597C-1.34217 12.5657 -1.7953 23.3907 4.12814 30.7516C3.79972 29.8715 3.731 28.9157 3.93016 27.9977C4.12933 27.0797 4.58798 26.2383 5.25158 25.5735C5.99023 24.8359 6.94501 24.3532 7.97696 24.1959C9.0089 24.0385 10.0641 24.2146 10.9891 24.6985C9.55912 22.7417 8.91959 20.3177 9.19811 17.9101C9.47663 15.5026 10.6527 13.2886 12.4917 11.71C14.3306 10.1314 16.6972 9.30427 19.1191 9.39365C21.5411 9.48303 23.8402 10.4824 25.5578 12.1922C26.414 13.0484 27.5752 13.5293 28.786 13.5293C29.9967 13.5293 31.1579 13.0484 32.0141 12.1922C32.8702 11.3361 33.3512 10.1749 33.3512 8.96409C33.3512 7.75331 32.8702 6.59212 32.0141 5.73597C30.2735 3.99301 28.2056 2.61112 25.9294 1.66967C23.6531 0.728223 21.2133 0.245772 18.75 0.250028ZM33.375 7.25159C33.7029 8.13157 33.7712 9.08721 33.5718 10.0049C33.3723 10.9225 32.9136 11.7636 32.25 12.4282C31.5114 13.1658 30.5566 13.6484 29.5246 13.8058C28.4927 13.9631 27.4375 13.7871 26.5125 13.3032C27.8728 15.158 28.5244 17.4383 28.3496 19.7318C28.1748 22.0253 27.185 24.1806 25.5594 25.8078C24.7032 26.6638 24.2222 27.8248 24.222 29.0354C24.222 29.6349 24.34 30.2284 24.5693 30.7823C24.7986 31.3361 25.1348 31.8394 25.5586 32.2633C25.9824 32.6872 26.4856 33.0235 27.0394 33.253C27.5932 33.4825 28.1867 33.6006 28.7862 33.6007C29.9968 33.6008 31.1579 33.12 32.0141 32.2641C38.8422 25.436 39.2953 14.611 33.3735 7.25159H33.375ZM8.71251 24.4703C8.11283 24.4699 7.51895 24.5877 6.96484 24.817C6.41073 25.0463 5.90725 25.3826 5.48321 25.8067C5.05917 26.2307 4.72289 26.7342 4.49359 27.2883C4.26429 27.8424 4.14648 28.4363 4.14689 29.036C4.14648 29.6356 4.26429 30.2295 4.49359 30.7836C4.72289 31.3378 5.05917 31.8412 5.48321 32.2653C5.90725 32.6893 6.41073 33.0256 6.96484 33.2549C7.51895 33.4842 8.11283 33.602 8.71251 33.6016C9.3122 33.602 9.90608 33.4842 10.4602 33.2549C11.0143 33.0256 11.5178 32.6893 11.9418 32.2653C12.3659 31.8412 12.7021 31.3378 12.9314 30.7836C13.1607 30.2295 13.2786 29.6356 13.2781 29.036C13.2788 28.4363 13.1611 27.8424 12.932 27.2882C12.7029 26.734 12.3668 26.2304 11.9429 25.8062C11.519 25.382 11.0157 25.0456 10.4616 24.8161C9.9076 24.5866 9.31376 24.4686 8.71408 24.4688L8.71251 24.4703ZM24.4469 26.7625C22.7942 27.974 20.7984 28.6271 18.7492 28.6271C16.7001 28.6271 14.7043 27.974 13.0516 26.7625C13.535 27.6876 13.7108 28.7427 13.5534 29.7745C13.3961 30.8064 12.9138 31.7611 12.1766 32.5C11.5118 33.1637 10.6703 33.6223 9.75222 33.8212C8.83417 34.0201 7.8783 33.9509 6.99845 33.6219C13.836 39.1266 23.6625 39.1266 30.4985 33.6219C29.6188 33.9506 28.6633 34.0196 27.7455 33.8207C26.8278 33.6218 25.9865 33.1634 25.3219 32.5C24.5843 31.7614 24.1017 30.8066 23.9443 29.7746C23.7869 28.7427 23.963 27.6875 24.4469 26.7625Z" fill="#FBFBFB"/>
</g>
<defs>
<clipPath id="clip0_1_1815">
<rect width="37.5" height="37.5" fill="white" transform="translate(0 0.25)"/>
</clipPath>
</defs>
</svg>
