<svg width="28" height="29" viewBox="0 0 28 29" fill="none" xmlns="http://www.w3.org/2000/svg">
<path d="M14 10.376C11.993 10.376 10.3551 12.0139 10.3551 14.0209C10.3551 16.028 11.993 17.6658 14 17.6658C16.007 17.6658 17.6449 16.028 17.6449 14.0209C17.6449 12.0139 16.007 10.376 14 10.376ZM24.9321 14.0209C24.9321 12.5116 24.9457 11.0159 24.861 9.50921C24.7762 7.75921 24.377 6.20609 23.0973 4.9264C21.8149 3.64398 20.2645 3.24749 18.5145 3.16273C17.0051 3.07796 15.5094 3.09163 14.0027 3.09163C12.4934 3.09163 10.9977 3.07796 9.49103 3.16273C7.74103 3.24749 6.1879 3.64671 4.90821 4.9264C3.62579 6.20882 3.2293 7.75921 3.14454 9.50921C3.05977 11.0186 3.07345 12.5143 3.07345 14.0209C3.07345 15.5276 3.05977 17.026 3.14454 18.5326C3.2293 20.2826 3.62852 21.8358 4.90821 23.1155C6.19063 24.3979 7.74103 24.7944 9.49103 24.8791C11.0004 24.9639 12.4961 24.9502 14.0027 24.9502C15.5121 24.9502 17.0078 24.9639 18.5145 24.8791C20.2645 24.7944 21.8176 24.3951 23.0973 23.1155C24.3797 21.833 24.7762 20.2826 24.861 18.5326C24.9485 17.026 24.9321 15.5303 24.9321 14.0209ZM14 19.6291C10.8965 19.6291 8.39181 17.1244 8.39181 14.0209C8.39181 10.9174 10.8965 8.41273 14 8.41273C17.1035 8.41273 19.6082 10.9174 19.6082 14.0209C19.6082 17.1244 17.1035 19.6291 14 19.6291ZM19.8379 9.4928C19.1133 9.4928 18.5281 8.90765 18.5281 8.18304C18.5281 7.45843 19.1133 6.87327 19.8379 6.87327C20.5625 6.87327 21.1477 7.45843 21.1477 8.18304C21.1479 8.3551 21.1142 8.52551 21.0484 8.68452C20.9827 8.84352 20.8862 8.988 20.7645 9.10966C20.6429 9.23133 20.4984 9.3278 20.3394 9.39354C20.1804 9.45929 20.01 9.49302 19.8379 9.4928Z" fill="#357AFF"/>
</svg>
