<svg width="28" height="29" viewBox="0 0 28 29" fill="none" xmlns="http://www.w3.org/2000/svg">
<path d="M5.8135 8.41734C7.2233 8.41734 8.36617 7.27448 8.36617 5.86468C8.36617 4.45488 7.2233 3.31201 5.8135 3.31201C4.4037 3.31201 3.26083 4.45488 3.26083 5.86468C3.26083 7.27448 4.4037 8.41734 5.8135 8.41734Z" fill="#357AFF"/>
<path d="M10.7765 10.352V24.5141H15.1737V17.5106C15.1737 15.6626 15.5213 13.873 17.8127 13.873C20.0725 13.873 20.1005 15.9858 20.1005 17.6273V24.5153H24.5V16.7488C24.5 12.9338 23.6787 10.002 19.2197 10.002C17.0788 10.002 15.6438 11.1768 15.057 12.2886H14.9975V10.352H10.7765ZM3.61084 10.352H8.01501V24.5141H3.61084V10.352Z" fill="#357AFF"/>
</svg>
