<svg width="18" height="19" viewBox="0 0 18 19" fill="none" xmlns="http://www.w3.org/2000/svg">
<path d="M8.15625 4.8418C8.15625 4.91639 8.12662 4.98793 8.07387 5.04067C8.02113 5.09342 7.94959 5.12305 7.875 5.12305H6.75C6.67541 5.12305 6.60387 5.09342 6.55113 5.04067C6.49838 4.98793 6.46875 4.91639 6.46875 4.8418C6.46875 4.7672 6.49838 4.69567 6.55113 4.64292C6.60387 4.59018 6.67541 4.56055 6.75 4.56055H7.875C7.94959 4.56055 8.02113 4.59018 8.07387 4.64292C8.12662 4.69567 8.15625 4.7672 8.15625 4.8418ZM11.7281 14.0809L12.0023 15.9723C12.0168 16.0928 12.0061 16.2149 11.9711 16.3311C11.936 16.4473 11.8772 16.5549 11.7984 16.6473C11.7201 16.7382 11.6229 16.8111 11.5137 16.8609C11.4044 16.9107 11.2857 16.9361 11.1656 16.9355H6.83438C6.71432 16.9361 6.59556 16.9107 6.48631 16.8609C6.37706 16.8111 6.2799 16.7382 6.20156 16.6473C6.12282 16.5549 6.06404 16.4473 6.02895 16.3311C5.99386 16.2149 5.9832 16.0928 5.99766 15.9723L6.27188 14.0809C5.15514 13.5605 4.21001 12.7324 3.54744 11.6937C2.88487 10.655 2.53234 9.44882 2.53125 8.2168C2.53125 8.14221 2.56088 8.07067 2.61363 8.01792C2.66637 7.96518 2.73791 7.93555 2.8125 7.93555H4.21875V3.1543C4.21875 2.93052 4.30764 2.71591 4.46588 2.55768C4.62411 2.39944 4.83872 2.31055 5.0625 2.31055H12.9375C13.1613 2.31055 13.3759 2.39944 13.5341 2.55768C13.6924 2.71591 13.7813 2.93052 13.7813 3.1543V7.93555H15.1875C15.2621 7.93555 15.3336 7.96518 15.3864 8.01792C15.4391 8.07067 15.4688 8.14221 15.4688 8.2168C15.4677 9.44882 15.1151 10.655 14.4526 11.6937C13.79 12.7324 12.8449 13.5605 11.7281 14.0809ZM4.78125 7.93555H13.2188V3.1543C13.2188 3.0797 13.1891 3.00817 13.1364 2.95542C13.0836 2.90268 13.0121 2.87305 12.9375 2.87305H5.0625C4.98791 2.87305 4.91637 2.90268 4.86363 2.95542C4.81088 3.00817 4.78125 3.0797 4.78125 3.1543V7.93555ZM11.1938 14.3059C9.77509 14.8123 8.22491 14.8123 6.80625 14.3059L6.56016 16.0496C6.55242 16.0895 6.55412 16.1305 6.56511 16.1696C6.5761 16.2087 6.59607 16.2446 6.62344 16.2746C6.64922 16.3055 6.68149 16.3303 6.71794 16.3473C6.7544 16.3643 6.79415 16.3731 6.83438 16.373H11.1656C11.2059 16.3731 11.2456 16.3643 11.2821 16.3473C11.3185 16.3303 11.3508 16.3055 11.3766 16.2746C11.4039 16.2446 11.4239 16.2087 11.4349 16.1696C11.4459 16.1305 11.4476 16.0895 11.4398 16.0496L11.1938 14.3059ZM14.8992 8.49805H3.10078C3.17476 10.0128 3.82857 11.4411 4.92679 12.4869C6.025 13.5328 7.48344 14.1162 9 14.1162C10.5166 14.1162 11.975 13.5328 13.0732 12.4869C14.1714 11.4411 14.8252 10.0128 14.8992 8.49805Z" fill="#3A3A3A"/>
</svg>
