<svg width="28" height="29" viewBox="0 0 28 29" fill="none" xmlns="http://www.w3.org/2000/svg">
<path d="M27.5835 5.781C26.6093 6.21267 25.5628 6.50433 24.4626 6.63617C25.5978 5.95693 26.4471 4.88788 26.852 3.6285C25.7855 4.26199 24.6182 4.7079 23.401 4.94683C22.5824 4.07284 21.4982 3.49355 20.3167 3.29889C19.1352 3.10423 17.9224 3.30509 16.8668 3.8703C15.8111 4.4355 14.9715 5.33342 14.4785 6.42466C13.9854 7.51589 13.8664 8.73938 14.14 9.90517C11.9789 9.79666 9.86487 9.23498 7.93497 8.25656C6.00506 7.27814 4.30245 5.90486 2.93764 4.22583C2.47097 5.03083 2.20264 5.96417 2.20264 6.95817C2.20212 7.853 2.42248 8.73412 2.84416 9.52336C3.26585 10.3126 3.87583 10.9855 4.61997 11.4825C3.75696 11.455 2.91299 11.2218 2.15831 10.8023V10.8723C2.15822 12.1274 2.59234 13.3438 3.38702 14.3152C4.1817 15.2866 5.28797 15.9531 6.51814 16.2017C5.71755 16.4183 4.8782 16.4503 4.06347 16.295C4.41055 17.3749 5.08663 18.3192 5.99707 18.9957C6.9075 19.6723 8.00671 20.0472 9.14081 20.068C7.21561 21.5793 4.83801 22.3991 2.39047 22.3955C1.95692 22.3956 1.52373 22.3703 1.09314 22.3197C3.57753 23.917 6.46954 24.7648 9.42314 24.7615C19.4215 24.7615 24.8873 16.4805 24.8873 9.2985C24.8873 9.06517 24.8815 8.8295 24.871 8.59617C25.9341 7.8273 26.8519 6.87521 27.5811 5.7845L27.5835 5.781Z" fill="#357AFF"/>
</svg>
